<svg width="128" height="128" viewBox="0 0 128 128" fill="none" xmlns="http://www.w3.org/2000/svg">
<g clip-path="url(#clip0_1_7)">
<rect x="80" y="43" width="20" height="57" rx="5" fill="url(#paint0_linear_1_7)"/>
<rect x="80" y="43" width="20" height="57" rx="5" fill="#1A6FAD" fill-opacity="0.2"/>
<rect x="63" y="62" width="57" height="18" rx="5" fill="url(#paint1_linear_1_7)"/>
<rect x="63" y="62" width="57" height="18" rx="5" fill="#1A6FAD" fill-opacity="0.2"/>
<rect x="80" y="43" width="20" height="57" rx="5" fill="#DBDBDB" fill-opacity="0.01"/>
<rect x="63" y="62" width="57" height="18" rx="5" fill="#DBDBDB" fill-opacity="0.01"/>
<path d="M13.74 74L5.704 65.096V74H3.156V54.484H5.704V63.528L13.768 54.484H16.988L8.14 64.256L17.072 74H13.74ZM35.3177 65.74C35.3177 66.2253 35.2897 66.7387 35.2337 67.28H22.9697C23.0631 68.792 23.5764 69.9773 24.5097 70.836C25.4617 71.676 26.6097 72.096 27.9537 72.096C29.0551 72.096 29.9697 71.844 30.6977 71.34C31.4444 70.8173 31.9671 70.1267 32.2657 69.268H35.0097C34.5991 70.7427 33.7777 71.9467 32.5457 72.88C31.3137 73.7947 29.7831 74.252 27.9537 74.252C26.4977 74.252 25.1911 73.9253 24.0337 73.272C22.8951 72.6187 21.9991 71.6947 21.3457 70.5C20.6924 69.2867 20.3657 67.8867 20.3657 66.3C20.3657 64.7133 20.6831 63.3227 21.3177 62.128C21.9524 60.9333 22.8391 60.0187 23.9777 59.384C25.1351 58.7307 26.4604 58.404 27.9537 58.404C29.4097 58.404 30.6977 58.7213 31.8177 59.356C32.9377 59.9907 33.7964 60.868 34.3937 61.988C35.0097 63.0893 35.3177 64.34 35.3177 65.74ZM32.6857 65.208C32.6857 64.2373 32.4711 63.4067 32.0417 62.716C31.6124 62.0067 31.0244 61.4747 30.2777 61.12C29.5497 60.7467 28.7377 60.56 27.8417 60.56C26.5537 60.56 25.4524 60.9707 24.5377 61.792C23.6417 62.6133 23.1284 63.752 22.9977 65.208H32.6857ZM47.557 58.376C49.4237 58.376 50.9357 58.9453 52.093 60.084C53.2503 61.204 53.829 62.828 53.829 64.956V74H51.309V65.32C51.309 63.7893 50.9263 62.6227 50.161 61.82C49.3957 60.9987 48.3503 60.588 47.025 60.588C45.681 60.588 44.6077 61.008 43.805 61.848C43.021 62.688 42.629 63.9107 42.629 65.516V74H40.081V58.656H42.629V60.84C43.133 60.056 43.8143 59.4493 44.673 59.02C45.5503 58.5907 46.5117 58.376 47.557 58.376ZM67.9592 74L61.9392 67.224V74H59.3912V53.28H61.9392V65.46L67.8472 58.656H71.4032L64.1792 66.3L71.4312 74H67.9592ZM81.8933 74.252C80.456 74.252 79.1493 73.9253 77.9733 73.272C76.816 72.6187 75.9013 71.6947 75.2293 70.5C74.576 69.2867 74.2493 67.8867 74.2493 66.3C74.2493 64.732 74.5853 63.3507 75.2573 62.156C75.948 60.9427 76.8813 60.0187 78.0573 59.384C79.2333 58.7307 80.5493 58.404 82.0053 58.404C83.4613 58.404 84.7773 58.7307 85.9533 59.384C87.1293 60.0187 88.0533 60.9333 88.7253 62.128C89.416 63.3227 89.7613 64.7133 89.7613 66.3C89.7613 67.8867 89.4066 69.2867 88.6973 70.5C88.0066 71.6947 87.064 72.6187 85.8693 73.272C84.6746 73.9253 83.3493 74.252 81.8933 74.252ZM81.8933 72.012C82.808 72.012 83.6666 71.7973 84.4693 71.368C85.272 70.9387 85.916 70.2947 86.4013 69.436C86.9053 68.5773 87.1573 67.532 87.1573 66.3C87.1573 65.068 86.9146 64.0227 86.4293 63.164C85.944 62.3053 85.3093 61.6707 84.5253 61.26C83.7413 60.8307 82.892 60.616 81.9773 60.616C81.044 60.616 80.1853 60.8307 79.4013 61.26C78.636 61.6707 78.02 62.3053 77.5533 63.164C77.0866 64.0227 76.8533 65.068 76.8533 66.3C76.8533 67.5507 77.0773 68.6053 77.5253 69.464C77.992 70.3227 78.608 70.9667 79.3733 71.396C80.1386 71.8067 80.9786 72.012 81.8933 72.012Z" fill="black"/>
</g>
<defs>
<linearGradient id="paint0_linear_1_7" x1="83.1579" y1="102" x2="116.599" y2="85.3647" gradientUnits="userSpaceOnUse">
<stop stop-color="#91CCF6"/>
<stop offset="1" stop-color="#91CCF6" stop-opacity="0"/>
</linearGradient>
<linearGradient id="paint1_linear_1_7" x1="72" y1="80.6316" x2="77.62" y2="55.4008" gradientUnits="userSpaceOnUse">
<stop stop-color="#91CCF6"/>
<stop offset="1" stop-color="#91CCF6" stop-opacity="0"/>
</linearGradient>
<clipPath id="clip0_1_7">
<rect width="128" height="128" fill="white"/>
</clipPath>
</defs>
</svg>
